<?xml version="1.0" encoding="UTF-8" standalone="no"?>
<svg width="100" height="100" viewBox="0 0 100 100" xmlns="http://www.w3.org/2000/svg">
  <g fill="none" stroke="#ffffff" stroke-width="0.8" opacity="0.3">
    <!-- Horizontal lines -->
    <path d="M10,20 L40,20 M60,20 L90,20" />
    <path d="M10,50 L30,50 M70,50 L90,50" />
    <path d="M10,80 L40,80 M60,80 L90,80" />
    
    <!-- Vertical lines -->
    <path d="M20,10 L20,40 M20,60 L20,90" />
    <path d="M50,10 L50,30 M50,70 L50,90" />
    <path d="M80,10 L80,40 M80,60 L80,90" />
    
    <!-- Nodes -->
    <circle cx="20" cy="20" r="2" fill="#ffffff" />
    <circle cx="20" cy="50" r="2" fill="#ffffff" />
    <circle cx="20" cy="80" r="2" fill="#ffffff" />
    <circle cx="50" cy="20" r="2" fill="#ffffff" />
    <circle cx="50" cy="50" r="3" fill="#ffffff" />
    <circle cx="50" cy="80" r="2" fill="#ffffff" />
    <circle cx="80" cy="20" r="2" fill="#ffffff" />
    <circle cx="80" cy="50" r="2" fill="#ffffff" />
    <circle cx="80" cy="80" r="2" fill="#ffffff" />
    
    <!-- Diagonal connections -->
    <path d="M20,20 L50,50 M50,50 L80,80" />
    <path d="M80,20 L50,50 M50,50 L20,80" />
    
    <!-- Additional circuit elements -->
    <path d="M35,35 L45,35 L45,45 L35,45 Z" />
    <path d="M55,55 L65,55 L65,65 L55,65 Z" />
    <path d="M35,55 C35,60 40,65 45,65" />
    <path d="M55,35 C60,35 65,40 65,45" />
  </g>
</svg>
